<mxfile host="Electron" modified="2024-03-25T11:16:25.952Z" agent="Mozilla/5.0 (Windows NT 10.0; Win64; x64) AppleWebKit/537.36 (KHTML, like Gecko) draw.io/23.1.5 Chrome/120.0.6099.109 Electron/28.1.0 Safari/537.36" etag="W2MWREV73RdszTzjAA4h" version="23.1.5" type="device">
  <diagram id="lr50Nq3O_Wpqp5DX5Pws" name="Page-1">
    <mxGraphModel dx="2275" dy="1318" grid="1" gridSize="10" guides="1" tooltips="1" connect="1" arrows="1" fold="1" page="0" pageScale="1" pageWidth="827" pageHeight="1169" math="0" shadow="0">
      <root>
        <mxCell id="0" />
        <mxCell id="1" parent="0" />
        <mxCell id="AQJ6SZYPFtqUvpiH9dMF-6" value="" style="group" parent="1" vertex="1" connectable="0">
          <mxGeometry x="-660" y="-500" width="200" height="70" as="geometry" />
        </mxCell>
        <mxCell id="AQJ6SZYPFtqUvpiH9dMF-7" value="" style="shape=message;html=1;whiteSpace=wrap;html=1;outlineConnect=0;" parent="AQJ6SZYPFtqUvpiH9dMF-6" vertex="1">
          <mxGeometry x="70" width="60" height="40" as="geometry" />
        </mxCell>
        <mxCell id="AQJ6SZYPFtqUvpiH9dMF-8" value="&lt;font style=&quot;font-size: 18px&quot;&gt;&lt;br&gt;&lt;br&gt;&lt;br&gt;MsgQ_Id&lt;br&gt;(MsgQ_Name&lt;br&gt;MsgQ_Size&lt;br&gt;Timeout)&lt;br&gt;&lt;/font&gt;" style="text;html=1;strokeColor=none;fillColor=none;align=center;verticalAlign=middle;whiteSpace=wrap;rounded=0;" parent="AQJ6SZYPFtqUvpiH9dMF-6" vertex="1">
          <mxGeometry y="50" width="200" height="20" as="geometry" />
        </mxCell>
        <mxCell id="PpfHud4jIVG3XQ3r7zgQ-96" style="edgeStyle=orthogonalEdgeStyle;rounded=0;orthogonalLoop=1;jettySize=auto;html=1;entryX=1;entryY=1;entryDx=0;entryDy=0;" edge="1" parent="1" source="_1sIDQnS6gh5_1FHGt5K-2" target="_1sIDQnS6gh5_1FHGt5K-5">
          <mxGeometry relative="1" as="geometry">
            <Array as="points">
              <mxPoint x="308" y="531" />
            </Array>
          </mxGeometry>
        </mxCell>
        <mxCell id="_1sIDQnS6gh5_1FHGt5K-2" value="&lt;font style=&quot;font-size: 18px&quot;&gt;&lt;i style=&quot;font-size: 12px&quot;&gt;&lt;font style=&quot;font-size: 14px&quot;&gt;(Periodic task)&lt;br&gt;&lt;/font&gt;&lt;/i&gt;&lt;font size=&quot;4&quot;&gt;T_BATTERIE&lt;/font&gt;&lt;br style=&quot;font-size: 12px&quot;&gt;&lt;font size=&quot;4&quot;&gt;(niveau_batterie, Priority : x, &lt;br&gt;T : 500 ms)&lt;/font&gt;&lt;br&gt;&lt;/font&gt;" style="ellipse;whiteSpace=wrap;html=1;aspect=fixed;fillColor=#00CC00;strokeColor=#82b366;" parent="1" vertex="1">
          <mxGeometry x="210" y="1100" width="195" height="195" as="geometry" />
        </mxCell>
        <mxCell id="_1sIDQnS6gh5_1FHGt5K-3" value="&lt;font&gt;&lt;i&gt;&lt;font style=&quot;font-size: 14px&quot;&gt;(Aperiodic task)&lt;br&gt;&lt;/font&gt;&lt;/i&gt;&lt;font size=&quot;4&quot;&gt;T_SERVEUR&lt;/font&gt;&lt;br&gt;&lt;font size=&quot;4&quot;&gt;(connection_serveur, Priority : x)&lt;/font&gt;&lt;br&gt;&lt;/font&gt;" style="ellipse;whiteSpace=wrap;html=1;aspect=fixed;fillColor=#007FFF;strokeColor=#6c8ebf;" parent="1" vertex="1">
          <mxGeometry x="-1070" y="690" width="205" height="205" as="geometry" />
        </mxCell>
        <mxCell id="_1sIDQnS6gh5_1FHGt5K-5" value="&lt;font&gt;&lt;i&gt;&lt;font style=&quot;font-size: 14px&quot;&gt;(Aperiodic task)&lt;br&gt;&lt;/font&gt;&lt;/i&gt;&lt;font size=&quot;4&quot;&gt;T_ENVOI_MON&lt;/font&gt;&lt;br&gt;&lt;font size=&quot;4&quot;&gt;(envoi_message, Priority : x)&lt;/font&gt;&lt;br&gt;&lt;/font&gt;" style="ellipse;whiteSpace=wrap;html=1;aspect=fixed;fillColor=#007FFF;strokeColor=#6c8ebf;" parent="1" vertex="1">
          <mxGeometry x="70" y="360" width="200" height="200" as="geometry" />
        </mxCell>
        <mxCell id="PpfHud4jIVG3XQ3r7zgQ-74" style="edgeStyle=orthogonalEdgeStyle;rounded=0;orthogonalLoop=1;jettySize=auto;html=1;entryX=0;entryY=0.5;entryDx=0;entryDy=0;" edge="1" parent="1" source="_1sIDQnS6gh5_1FHGt5K-6" target="AQJ6SZYPFtqUvpiH9dMF-8">
          <mxGeometry relative="1" as="geometry">
            <Array as="points">
              <mxPoint x="-800" y="-440" />
            </Array>
          </mxGeometry>
        </mxCell>
        <mxCell id="_1sIDQnS6gh5_1FHGt5K-6" value="&lt;font style=&quot;font-size: 18px&quot;&gt;&lt;i style=&quot;font-size: 12px&quot;&gt;&lt;font style=&quot;font-size: 14px&quot;&gt;(Periodic task)&lt;br&gt;&lt;/font&gt;&lt;/i&gt;&lt;font size=&quot;4&quot;&gt;T_POSITION&lt;/font&gt;&lt;br style=&quot;font-size: 12px&quot;&gt;&lt;font size=&quot;4&quot;&gt;(calcul_position, Priority : x, &lt;br&gt;T : 100 ms)&lt;/font&gt;&lt;br&gt;&lt;/font&gt;" style="ellipse;whiteSpace=wrap;html=1;aspect=fixed;fillColor=#00CC00;strokeColor=#82b366;" parent="1" vertex="1">
          <mxGeometry x="-910" y="-92" width="190" height="190" as="geometry" />
        </mxCell>
        <mxCell id="_1sIDQnS6gh5_1FHGt5K-7" value="&lt;font&gt;&lt;i&gt;&lt;font style=&quot;font-size: 14px&quot;&gt;(Aperiodic task)&lt;br&gt;&lt;/font&gt;&lt;/i&gt;&lt;font size=&quot;4&quot;&gt;T_RECEPTION_MON&lt;/font&gt;&lt;br&gt;&lt;font size=&quot;4&quot;&gt;(reception_message, Priority : x)&lt;/font&gt;&lt;br&gt;&lt;/font&gt;" style="ellipse;whiteSpace=wrap;html=1;aspect=fixed;fillColor=#007FFF;strokeColor=#6c8ebf;" parent="1" vertex="1">
          <mxGeometry x="-262" y="360" width="200" height="200" as="geometry" />
        </mxCell>
        <mxCell id="_1sIDQnS6gh5_1FHGt5K-10" value="&lt;font style=&quot;font-size: 18px&quot;&gt;&lt;i style=&quot;font-size: 12px&quot;&gt;&lt;font style=&quot;font-size: 14px&quot;&gt;(Periodic task)&lt;br&gt;&lt;/font&gt;&lt;/i&gt;&lt;font size=&quot;4&quot;&gt;T_MOUVEMENT&lt;/font&gt;&lt;br style=&quot;font-size: 12px&quot;&gt;&lt;font size=&quot;4&quot;&gt;(mouvement_robot, Priority : x, &lt;br&gt;T : 100 ms)&lt;/font&gt;&lt;br&gt;&lt;/font&gt;" style="ellipse;whiteSpace=wrap;html=1;aspect=fixed;fillColor=#00CC00;strokeColor=#82b366;" parent="1" vertex="1">
          <mxGeometry x="-100" y="990" width="190" height="190" as="geometry" />
        </mxCell>
        <mxCell id="PpfHud4jIVG3XQ3r7zgQ-49" style="edgeStyle=orthogonalEdgeStyle;rounded=0;orthogonalLoop=1;jettySize=auto;html=1;entryX=0;entryY=0.5;entryDx=0;entryDy=0;" edge="1" parent="1" source="_1sIDQnS6gh5_1FHGt5K-12" target="_1sIDQnS6gh5_1FHGt5K-5">
          <mxGeometry relative="1" as="geometry">
            <Array as="points">
              <mxPoint x="-50" y="-4" />
              <mxPoint x="-50" y="460" />
            </Array>
          </mxGeometry>
        </mxCell>
        <mxCell id="_1sIDQnS6gh5_1FHGt5K-12" value="&lt;font&gt;&lt;i&gt;&lt;font style=&quot;font-size: 14px&quot;&gt;(Aperiodic task)&lt;br&gt;&lt;/font&gt;&lt;/i&gt;&lt;font size=&quot;4&quot;&gt;T_START_CAM&lt;/font&gt;&lt;br&gt;&lt;font size=&quot;4&quot;&gt;(start_camera, Priority : x)&lt;/font&gt;&lt;br&gt;&lt;/font&gt;" style="ellipse;whiteSpace=wrap;html=1;aspect=fixed;fillColor=#007FFF;strokeColor=#6c8ebf;" parent="1" vertex="1">
          <mxGeometry x="-262.5" y="-104" width="200" height="200" as="geometry" />
        </mxCell>
        <mxCell id="PpfHud4jIVG3XQ3r7zgQ-51" style="edgeStyle=orthogonalEdgeStyle;rounded=0;orthogonalLoop=1;jettySize=auto;html=1;entryX=0.5;entryY=0;entryDx=0;entryDy=0;" edge="1" parent="1" source="_1sIDQnS6gh5_1FHGt5K-13" target="_1sIDQnS6gh5_1FHGt5K-5">
          <mxGeometry relative="1" as="geometry" />
        </mxCell>
        <mxCell id="_1sIDQnS6gh5_1FHGt5K-13" value="&lt;font style=&quot;font-size: 18px&quot;&gt;&lt;i style=&quot;font-size: 12px&quot;&gt;&lt;font style=&quot;font-size: 14px&quot;&gt;(Periodic task)&lt;br&gt;&lt;/font&gt;&lt;/i&gt;&lt;font size=&quot;4&quot;&gt;T_IMAGE&lt;/font&gt;&lt;br style=&quot;font-size: 12px&quot;&gt;&lt;font size=&quot;4&quot;&gt;(capturer_image, Priority : x, &lt;br&gt;T : 100 ms)&lt;/font&gt;&lt;br&gt;&lt;/font&gt;" style="ellipse;whiteSpace=wrap;html=1;aspect=fixed;fillColor=#00CC00;strokeColor=#82b366;" parent="1" vertex="1">
          <mxGeometry x="70" y="-102" width="200" height="200" as="geometry" />
        </mxCell>
        <mxCell id="_1sIDQnS6gh5_1FHGt5K-14" value="&lt;font&gt;&lt;i&gt;&lt;font style=&quot;font-size: 14px&quot;&gt;(Aperiodic task)&lt;br&gt;&lt;/font&gt;&lt;/i&gt;&lt;font size=&quot;4&quot;&gt;T_CALIBRATION_ARN&lt;/font&gt;&lt;br&gt;&lt;font size=&quot;4&quot;&gt;(calibration_arene, Priority : x)&lt;/font&gt;&lt;br&gt;&lt;/font&gt;" style="ellipse;whiteSpace=wrap;html=1;aspect=fixed;fillColor=#007FFF;strokeColor=#6c8ebf;" parent="1" vertex="1">
          <mxGeometry x="-620" y="-104" width="200" height="200" as="geometry" />
        </mxCell>
        <mxCell id="PpfHud4jIVG3XQ3r7zgQ-19" style="edgeStyle=orthogonalEdgeStyle;rounded=0;orthogonalLoop=1;jettySize=auto;html=1;entryX=0.5;entryY=1;entryDx=0;entryDy=0;" edge="1" parent="1" source="PpfHud4jIVG3XQ3r7zgQ-17" target="_1sIDQnS6gh5_1FHGt5K-12">
          <mxGeometry relative="1" as="geometry" />
        </mxCell>
        <object label="démarrage_caméra" id="PpfHud4jIVG3XQ3r7zgQ-17">
          <mxCell style="verticalLabelPosition=bottom;verticalAlign=top;html=1;shape=mxgraph.flowchart.collate;direction=south;rotation=90;" vertex="1" parent="1">
            <mxGeometry x="-197" y="250" width="70" height="40" as="geometry" />
          </mxCell>
        </object>
        <mxCell id="PpfHud4jIVG3XQ3r7zgQ-18" style="edgeStyle=orthogonalEdgeStyle;rounded=0;orthogonalLoop=1;jettySize=auto;html=1;entryX=0.5;entryY=0;entryDx=0;entryDy=0;entryPerimeter=0;" edge="1" parent="1" source="_1sIDQnS6gh5_1FHGt5K-7" target="PpfHud4jIVG3XQ3r7zgQ-17">
          <mxGeometry relative="1" as="geometry" />
        </mxCell>
        <mxCell id="PpfHud4jIVG3XQ3r7zgQ-22" style="edgeStyle=orthogonalEdgeStyle;rounded=0;orthogonalLoop=1;jettySize=auto;html=1;entryX=0;entryY=0.5;entryDx=0;entryDy=0;" edge="1" parent="1" source="PpfHud4jIVG3XQ3r7zgQ-20" target="_1sIDQnS6gh5_1FHGt5K-13">
          <mxGeometry relative="1" as="geometry" />
        </mxCell>
        <object label="caméra_démarrée" id="PpfHud4jIVG3XQ3r7zgQ-20">
          <mxCell style="verticalLabelPosition=bottom;verticalAlign=top;html=1;shape=mxgraph.flowchart.collate;direction=south;rotation=0;" vertex="1" parent="1">
            <mxGeometry x="-30" y="-23" width="70" height="40" as="geometry" />
          </mxCell>
        </object>
        <mxCell id="PpfHud4jIVG3XQ3r7zgQ-21" style="edgeStyle=orthogonalEdgeStyle;rounded=0;orthogonalLoop=1;jettySize=auto;html=1;entryX=0.5;entryY=1;entryDx=0;entryDy=0;entryPerimeter=0;" edge="1" parent="1" source="_1sIDQnS6gh5_1FHGt5K-12" target="PpfHud4jIVG3XQ3r7zgQ-20">
          <mxGeometry relative="1" as="geometry" />
        </mxCell>
        <mxCell id="PpfHud4jIVG3XQ3r7zgQ-38" style="edgeStyle=orthogonalEdgeStyle;rounded=0;orthogonalLoop=1;jettySize=auto;html=1;entryX=0.5;entryY=1;entryDx=0;entryDy=0;" edge="1" parent="1" source="PpfHud4jIVG3XQ3r7zgQ-35" target="_1sIDQnS6gh5_1FHGt5K-14">
          <mxGeometry relative="1" as="geometry">
            <Array as="points">
              <mxPoint x="-520" y="460" />
            </Array>
          </mxGeometry>
        </mxCell>
        <object label="Consigne_arène" id="PpfHud4jIVG3XQ3r7zgQ-35">
          <mxCell style="verticalLabelPosition=bottom;verticalAlign=top;html=1;shape=mxgraph.flowchart.collate;direction=south;rotation=0;" vertex="1" parent="1">
            <mxGeometry x="-470" y="440" width="70" height="40" as="geometry" />
          </mxCell>
        </object>
        <mxCell id="PpfHud4jIVG3XQ3r7zgQ-37" style="edgeStyle=orthogonalEdgeStyle;rounded=0;orthogonalLoop=1;jettySize=auto;html=1;entryX=0.5;entryY=0;entryDx=0;entryDy=0;entryPerimeter=0;" edge="1" parent="1" source="_1sIDQnS6gh5_1FHGt5K-7" target="PpfHud4jIVG3XQ3r7zgQ-35">
          <mxGeometry relative="1" as="geometry" />
        </mxCell>
        <mxCell id="PpfHud4jIVG3XQ3r7zgQ-87" style="edgeStyle=orthogonalEdgeStyle;rounded=0;orthogonalLoop=1;jettySize=auto;html=1;entryX=0;entryY=0.5;entryDx=0;entryDy=0;" edge="1" parent="1" source="PpfHud4jIVG3XQ3r7zgQ-57" target="PpfHud4jIVG3XQ3r7zgQ-85">
          <mxGeometry relative="1" as="geometry" />
        </mxCell>
        <mxCell id="PpfHud4jIVG3XQ3r7zgQ-98" style="edgeStyle=orthogonalEdgeStyle;rounded=0;orthogonalLoop=1;jettySize=auto;html=1;entryX=0.5;entryY=1;entryDx=0;entryDy=0;" edge="1" parent="1" source="PpfHud4jIVG3XQ3r7zgQ-57" target="_1sIDQnS6gh5_1FHGt5K-2">
          <mxGeometry relative="1" as="geometry">
            <Array as="points">
              <mxPoint x="-710" y="1231" />
              <mxPoint x="-710" y="1350" />
              <mxPoint x="308" y="1350" />
            </Array>
          </mxGeometry>
        </mxCell>
        <object label="Robot_communique" id="PpfHud4jIVG3XQ3r7zgQ-57">
          <mxCell style="verticalLabelPosition=bottom;verticalAlign=top;html=1;shape=mxgraph.flowchart.collate;direction=south;rotation=0;" vertex="1" parent="1">
            <mxGeometry x="-802" y="1211" width="70" height="40" as="geometry" />
          </mxCell>
        </object>
        <mxCell id="PpfHud4jIVG3XQ3r7zgQ-62" value="Image" style="text;html=1;align=center;verticalAlign=middle;whiteSpace=wrap;rounded=0;" vertex="1" parent="1">
          <mxGeometry x="170" y="207.5" width="60" height="30" as="geometry" />
        </mxCell>
        <mxCell id="PpfHud4jIVG3XQ3r7zgQ-68" style="edgeStyle=orthogonalEdgeStyle;rounded=0;orthogonalLoop=1;jettySize=auto;html=1;entryX=1;entryY=0.5;entryDx=0;entryDy=0;" edge="1" parent="1" source="PpfHud4jIVG3XQ3r7zgQ-64" target="_1sIDQnS6gh5_1FHGt5K-5">
          <mxGeometry relative="1" as="geometry">
            <Array as="points">
              <mxPoint x="500" y="-350" />
              <mxPoint x="500" y="460" />
            </Array>
          </mxGeometry>
        </mxCell>
        <mxCell id="PpfHud4jIVG3XQ3r7zgQ-69" style="edgeStyle=orthogonalEdgeStyle;rounded=0;orthogonalLoop=1;jettySize=auto;html=1;entryX=0.5;entryY=0;entryDx=0;entryDy=0;" edge="1" parent="1" source="PpfHud4jIVG3XQ3r7zgQ-64" target="_1sIDQnS6gh5_1FHGt5K-13">
          <mxGeometry relative="1" as="geometry" />
        </mxCell>
        <object label="arène_trouvée" id="PpfHud4jIVG3XQ3r7zgQ-64">
          <mxCell style="verticalLabelPosition=bottom;verticalAlign=top;html=1;shape=mxgraph.flowchart.collate;direction=south;rotation=0;" vertex="1" parent="1">
            <mxGeometry x="-170" y="-370" width="70" height="40" as="geometry" />
          </mxCell>
        </object>
        <mxCell id="PpfHud4jIVG3XQ3r7zgQ-67" style="edgeStyle=orthogonalEdgeStyle;rounded=0;orthogonalLoop=1;jettySize=auto;html=1;entryX=0.5;entryY=1;entryDx=0;entryDy=0;entryPerimeter=0;" edge="1" parent="1" source="_1sIDQnS6gh5_1FHGt5K-14" target="PpfHud4jIVG3XQ3r7zgQ-64">
          <mxGeometry relative="1" as="geometry">
            <Array as="points">
              <mxPoint x="-520" y="-350" />
            </Array>
          </mxGeometry>
        </mxCell>
        <mxCell id="PpfHud4jIVG3XQ3r7zgQ-73" style="edgeStyle=orthogonalEdgeStyle;rounded=0;orthogonalLoop=1;jettySize=auto;html=1;entryX=0.5;entryY=1;entryDx=0;entryDy=0;" edge="1" parent="1" source="PpfHud4jIVG3XQ3r7zgQ-70" target="_1sIDQnS6gh5_1FHGt5K-6">
          <mxGeometry relative="1" as="geometry" />
        </mxCell>
        <object label="Calcul_position" id="PpfHud4jIVG3XQ3r7zgQ-70">
          <mxCell style="verticalLabelPosition=bottom;verticalAlign=top;html=1;shape=mxgraph.flowchart.collate;direction=south;rotation=0;" vertex="1" parent="1">
            <mxGeometry x="-474" y="660" width="70" height="40" as="geometry" />
          </mxCell>
        </object>
        <mxCell id="PpfHud4jIVG3XQ3r7zgQ-72" style="edgeStyle=orthogonalEdgeStyle;rounded=0;orthogonalLoop=1;jettySize=auto;html=1;entryX=0.5;entryY=0;entryDx=0;entryDy=0;entryPerimeter=0;" edge="1" parent="1" source="_1sIDQnS6gh5_1FHGt5K-7" target="PpfHud4jIVG3XQ3r7zgQ-70">
          <mxGeometry relative="1" as="geometry">
            <Array as="points">
              <mxPoint x="-162" y="680" />
            </Array>
          </mxGeometry>
        </mxCell>
        <mxCell id="PpfHud4jIVG3XQ3r7zgQ-75" style="edgeStyle=orthogonalEdgeStyle;rounded=0;orthogonalLoop=1;jettySize=auto;html=1;entryX=0.5;entryY=0;entryDx=0;entryDy=0;" edge="1" parent="1" source="AQJ6SZYPFtqUvpiH9dMF-8" target="_1sIDQnS6gh5_1FHGt5K-13">
          <mxGeometry relative="1" as="geometry" />
        </mxCell>
        <mxCell id="PpfHud4jIVG3XQ3r7zgQ-79" style="edgeStyle=orthogonalEdgeStyle;rounded=0;orthogonalLoop=1;jettySize=auto;html=1;entryX=1;entryY=0.5;entryDx=0;entryDy=0;" edge="1" parent="1" source="PpfHud4jIVG3XQ3r7zgQ-77" target="_1sIDQnS6gh5_1FHGt5K-3">
          <mxGeometry relative="1" as="geometry" />
        </mxCell>
        <object label="Demande_connexion" id="PpfHud4jIVG3XQ3r7zgQ-77">
          <mxCell style="verticalLabelPosition=bottom;verticalAlign=top;html=1;shape=mxgraph.flowchart.collate;direction=south;rotation=0;" vertex="1" parent="1">
            <mxGeometry x="-490" y="772.5" width="70" height="40" as="geometry" />
          </mxCell>
        </object>
        <mxCell id="PpfHud4jIVG3XQ3r7zgQ-78" style="edgeStyle=orthogonalEdgeStyle;rounded=0;orthogonalLoop=1;jettySize=auto;html=1;entryX=0.5;entryY=0;entryDx=0;entryDy=0;entryPerimeter=0;" edge="1" parent="1" source="_1sIDQnS6gh5_1FHGt5K-7" target="PpfHud4jIVG3XQ3r7zgQ-77">
          <mxGeometry relative="1" as="geometry">
            <Array as="points">
              <mxPoint x="-140" y="793" />
            </Array>
          </mxGeometry>
        </mxCell>
        <mxCell id="PpfHud4jIVG3XQ3r7zgQ-89" style="edgeStyle=orthogonalEdgeStyle;rounded=0;orthogonalLoop=1;jettySize=auto;html=1;entryX=0.5;entryY=0;entryDx=0;entryDy=0;" edge="1" parent="1" source="PpfHud4jIVG3XQ3r7zgQ-82" target="PpfHud4jIVG3XQ3r7zgQ-86">
          <mxGeometry relative="1" as="geometry" />
        </mxCell>
        <object label="Serveur_communique" id="PpfHud4jIVG3XQ3r7zgQ-82">
          <mxCell style="verticalLabelPosition=bottom;verticalAlign=top;html=1;shape=mxgraph.flowchart.collate;direction=south;rotation=90;" vertex="1" parent="1">
            <mxGeometry x="-1002.5" y="980" width="70" height="40" as="geometry" />
          </mxCell>
        </object>
        <mxCell id="PpfHud4jIVG3XQ3r7zgQ-83" style="edgeStyle=orthogonalEdgeStyle;rounded=0;orthogonalLoop=1;jettySize=auto;html=1;entryX=0.5;entryY=1;entryDx=0;entryDy=0;entryPerimeter=0;" edge="1" parent="1" source="_1sIDQnS6gh5_1FHGt5K-3" target="PpfHud4jIVG3XQ3r7zgQ-82">
          <mxGeometry relative="1" as="geometry" />
        </mxCell>
        <mxCell id="PpfHud4jIVG3XQ3r7zgQ-85" value="&lt;font&gt;&lt;i&gt;&lt;font style=&quot;font-size: 14px&quot;&gt;(Aperiodic task)&lt;br&gt;&lt;/font&gt;&lt;/i&gt;&lt;font size=&quot;4&quot;&gt;T_START_ROBOT&lt;/font&gt;&lt;br&gt;&lt;font size=&quot;4&quot;&gt;(start_robot, Priority : x)&lt;/font&gt;&lt;br&gt;&lt;/font&gt;" style="ellipse;whiteSpace=wrap;html=1;aspect=fixed;fillColor=#007FFF;strokeColor=#6c8ebf;" vertex="1" parent="1">
          <mxGeometry x="-674" y="1131" width="200" height="200" as="geometry" />
        </mxCell>
        <mxCell id="PpfHud4jIVG3XQ3r7zgQ-86" value="&lt;font&gt;&lt;i&gt;&lt;font style=&quot;font-size: 14px&quot;&gt;(Aperiodic task)&lt;br&gt;&lt;/font&gt;&lt;/i&gt;&lt;font size=&quot;4&quot;&gt;T_COM_ROBOT&lt;/font&gt;&lt;br&gt;&lt;font size=&quot;4&quot;&gt;(ouvrir_com, Priority : x)&lt;/font&gt;&lt;br&gt;&lt;/font&gt;" style="ellipse;whiteSpace=wrap;html=1;aspect=fixed;fillColor=#007FFF;strokeColor=#6c8ebf;" vertex="1" parent="1">
          <mxGeometry x="-1067" y="1131" width="200" height="200" as="geometry" />
        </mxCell>
        <mxCell id="PpfHud4jIVG3XQ3r7zgQ-90" style="edgeStyle=orthogonalEdgeStyle;rounded=0;orthogonalLoop=1;jettySize=auto;html=1;entryX=0.5;entryY=1;entryDx=0;entryDy=0;entryPerimeter=0;" edge="1" parent="1" source="PpfHud4jIVG3XQ3r7zgQ-86" target="PpfHud4jIVG3XQ3r7zgQ-57">
          <mxGeometry relative="1" as="geometry" />
        </mxCell>
        <mxCell id="PpfHud4jIVG3XQ3r7zgQ-93" style="edgeStyle=orthogonalEdgeStyle;rounded=0;orthogonalLoop=1;jettySize=auto;html=1;entryX=0.5;entryY=0;entryDx=0;entryDy=0;" edge="1" parent="1" source="PpfHud4jIVG3XQ3r7zgQ-91" target="PpfHud4jIVG3XQ3r7zgQ-85">
          <mxGeometry relative="1" as="geometry" />
        </mxCell>
        <object label="Démarrer_robot" id="PpfHud4jIVG3XQ3r7zgQ-91">
          <mxCell style="verticalLabelPosition=bottom;verticalAlign=top;html=1;shape=mxgraph.flowchart.collate;direction=south;rotation=0;" vertex="1" parent="1">
            <mxGeometry x="-420" y="960" width="70" height="40" as="geometry" />
          </mxCell>
        </object>
        <mxCell id="PpfHud4jIVG3XQ3r7zgQ-92" style="edgeStyle=orthogonalEdgeStyle;rounded=0;orthogonalLoop=1;jettySize=auto;html=1;entryX=0.5;entryY=0;entryDx=0;entryDy=0;entryPerimeter=0;" edge="1" parent="1" source="_1sIDQnS6gh5_1FHGt5K-7" target="PpfHud4jIVG3XQ3r7zgQ-91">
          <mxGeometry relative="1" as="geometry">
            <Array as="points">
              <mxPoint x="-120" y="980" />
            </Array>
          </mxGeometry>
        </mxCell>
        <mxCell id="PpfHud4jIVG3XQ3r7zgQ-102" style="edgeStyle=orthogonalEdgeStyle;rounded=0;orthogonalLoop=1;jettySize=auto;html=1;entryX=0;entryY=0.5;entryDx=0;entryDy=0;" edge="1" parent="1" source="PpfHud4jIVG3XQ3r7zgQ-100" target="_1sIDQnS6gh5_1FHGt5K-10">
          <mxGeometry relative="1" as="geometry" />
        </mxCell>
        <mxCell id="PpfHud4jIVG3XQ3r7zgQ-103" style="edgeStyle=orthogonalEdgeStyle;rounded=0;orthogonalLoop=1;jettySize=auto;html=1;entryX=0.5;entryY=1;entryDx=0;entryDy=0;" edge="1" parent="1" source="PpfHud4jIVG3XQ3r7zgQ-100" target="_1sIDQnS6gh5_1FHGt5K-5">
          <mxGeometry relative="1" as="geometry" />
        </mxCell>
        <object label="Robot_démarré" id="PpfHud4jIVG3XQ3r7zgQ-100">
          <mxCell style="verticalLabelPosition=bottom;verticalAlign=top;html=1;shape=mxgraph.flowchart.collate;direction=south;rotation=0;" vertex="1" parent="1">
            <mxGeometry x="-310" y="1212" width="70" height="40" as="geometry" />
          </mxCell>
        </object>
        <mxCell id="PpfHud4jIVG3XQ3r7zgQ-101" style="edgeStyle=orthogonalEdgeStyle;rounded=0;orthogonalLoop=1;jettySize=auto;html=1;entryX=0.5;entryY=1;entryDx=0;entryDy=0;entryPerimeter=0;" edge="1" parent="1" source="PpfHud4jIVG3XQ3r7zgQ-85" target="PpfHud4jIVG3XQ3r7zgQ-100">
          <mxGeometry relative="1" as="geometry" />
        </mxCell>
        <mxCell id="PpfHud4jIVG3XQ3r7zgQ-108" style="edgeStyle=orthogonalEdgeStyle;rounded=0;orthogonalLoop=1;jettySize=auto;html=1;entryX=1;entryY=0;entryDx=0;entryDy=0;" edge="1" parent="1" source="PpfHud4jIVG3XQ3r7zgQ-105" target="_1sIDQnS6gh5_1FHGt5K-10">
          <mxGeometry relative="1" as="geometry">
            <Array as="points">
              <mxPoint x="62" y="690" />
            </Array>
          </mxGeometry>
        </mxCell>
        <object label="Bouger_robot" id="PpfHud4jIVG3XQ3r7zgQ-105">
          <mxCell style="verticalLabelPosition=bottom;verticalAlign=top;html=1;shape=mxgraph.flowchart.collate;direction=south;rotation=0;" vertex="1" parent="1">
            <mxGeometry x="-30" y="670" width="70" height="40" as="geometry" />
          </mxCell>
        </object>
        <mxCell id="PpfHud4jIVG3XQ3r7zgQ-106" style="edgeStyle=orthogonalEdgeStyle;rounded=0;orthogonalLoop=1;jettySize=auto;html=1;entryX=0.5;entryY=1;entryDx=0;entryDy=0;entryPerimeter=0;" edge="1" parent="1" source="_1sIDQnS6gh5_1FHGt5K-7" target="PpfHud4jIVG3XQ3r7zgQ-105">
          <mxGeometry relative="1" as="geometry">
            <Array as="points">
              <mxPoint x="-80" y="690" />
            </Array>
          </mxGeometry>
        </mxCell>
      </root>
    </mxGraphModel>
  </diagram>
</mxfile>
